Coordinates
version=1
nRows=6
nColumns=36
inDegrees=yes

Units are S.I. units (second, meters, Newtons, ...)
If the header above contains a line with 'inDegrees', this indicates whether rotational values are in degrees (yes) or radians (no).

endheader
time	pelvis_tilt	pelvis_list	pelvis_rotation	pelvis_tx	pelvis_ty	pelvis_tz	hip_flexion_r	hip_adduction_r	hip_rotation_r	knee_angle_r	knee_angle_r_beta	ankle_angle_r	subtalar_angle_r	mtp_angle_r	hip_flexion_l	hip_adduction_l	hip_rotation_l	knee_angle_l	knee_angle_l_beta	ankle_angle_l	subtalar_angle_l	mtp_angle_l	lumbar_extension	lumbar_bending	lumbar_rotation	arm_flex_r	arm_add_r	arm_rot_r	elbow_flex_r	pro_sup_r	arm_flex_l	arm_add_l	arm_rot_l	elbow_flex_l	pro_sup_l
      2.15000000	      4.71012734	     12.21655905	     15.73167296	      0.69091349	      0.93043712	      0.01689373	     47.20319150	    -13.12047666	     12.36809842	     26.04898797	      0.45464061	     -4.42988713	      2.56074515	     -7.49999913	     25.62673584	     19.84222647	     -2.70089479	     52.56104547	      0.91736330	     31.11787717	     -6.39911561	     -7.49999913	    -35.09849250	    -12.40751674	     -7.78588191	     48.58498212	      8.50473845	     57.82772150	    117.39045944	     97.69363849	     69.56321515	     -0.91433009	     67.43448280	    123.81522578	     94.25056282
      2.16666670	      3.86604668	     12.52905540	     16.15149606	      0.69079013	      0.92695393	      0.01696915	     48.61936164	    -13.54630055	     12.70453392	     26.71813999	      0.46631951	     -4.63470141	      2.34167563	     -7.49999921	     27.25692346	     20.27901845	     -3.14195782	     53.65653927	      0.93648328	     31.14736129	     -6.76856099	     -7.49999921	    -35.55950982	    -12.55565919	     -8.32788011	     48.96228293	      8.73590264	     58.05016818	    117.37134972	     96.73058580	     70.19184602	     -1.00986010	     67.70034096	    123.97884860	     92.81180569
      2.18333330	      2.94860863	     12.78131526	     16.50319916	      0.69175870	      0.92154376	      0.01728413	     50.14091193	    -13.90651206	     13.07781473	     27.44422071	      0.47899201	     -4.76671069	      1.99132434	     -7.49999937	     28.98317826	     20.62398994	     -3.63775383	     54.80000943	      0.95644059	     31.18374900	     -7.16004500	     -7.49999937	    -35.78043460	    -12.72092690	     -8.81412735	     49.10074213	      9.31506157	     58.22019788	    117.16311713	    102.26104158	     70.76588236	     -1.26295869	     67.79976913	    124.57547530	     95.06812837
      2.20000000	      2.01385824	     13.03640470	     16.81884653	      0.69177148	      0.91786147	      0.01753844	     51.66635886	    -14.24433480	     13.49037882	     28.22302849	      0.49258477	     -4.64369490	      1.81598198	     -7.49999942	     30.72771015	     20.91590013	     -4.21101181	     55.94108207	      0.97635607	     31.39403097	     -7.24450793	     -7.49999942	    -36.32798225	    -12.85776080	     -9.12377869	     49.35328291	      9.05340229	     58.79905441	    117.69493506	    101.06550060	     71.03230883	     -1.51554102	     68.24820943	    125.10518711	     93.54115318
      2.21666670	      1.20561297	     13.28953483	     17.05214200	      0.69264975	      0.91483458	      0.01814503	     53.08627364	    -14.57122823	     13.99474062	     28.94169251	      0.50512783	     -4.55761431	      1.60478253	     -7.49999947	     32.26554087	     21.13949431	     -4.82524647	     56.97819308	      0.99445707	     31.60283384	     -7.30301385	     -7.49999947	    -36.94933453	    -13.04334038	     -9.47218954	     49.60477661	      8.83736492	     59.18595270	    117.63151998	     99.97641680	     71.28474919	     -1.43189394	     68.85505426	    125.27969129	     92.16507632
      2.23333330	      0.28151899	     13.48850416	     17.33534965	      0.69216949	      0.91073444	      0.01804755	     54.57612379	    -14.84954506	     14.58959951	     29.64459460	      0.51739578	     -4.37504517	      1.35027128	     -7.49999958	     33.87444045	     21.28366262	     -5.48848028	     58.00662105	      1.01240653	     31.71433341	     -7.40613920	     -7.49999958	    -37.30661779	    -13.20705311	     -9.64279927	     49.60582784	      8.63801063	     59.02706004	    117.47241985	    103.78021015	     71.60104566	     -1.24566378	     69.56912679	    125.41913433	     95.25968429
